<?xml version="1.0" standalone="no"?>
<!DOCTYPE svg PUBLIC "-//W3C//DTD SVG 20010904//EN"
 "http://www.w3.org/TR/2001/REC-SVG-20010904/DTD/svg10.dtd">
<svg version="1.0" xmlns="http://www.w3.org/2000/svg"
 width="512.000000pt" height="512.000000pt" viewBox="0 0 512.000000 512.000000"
 preserveAspectRatio="xMidYMid meet">

<g transform="translate(0.000000,512.000000) scale(0.100000,-0.100000)"
fill="#000000" stroke="none">
<path d="M1125 5109 c-296 -38 -561 -171 -766 -385 -170 -177 -277 -379 -331
-625 l-23 -104 0 -1430 c0 -1336 1 -1436 18 -1515 58 -277 166 -479 357 -670
153 -153 304 -248 494 -309 229 -74 203 -73 1776 -69 1362 4 1376 4 1460 25
508 127 856 475 983 983 21 84 21 99 25 1460 4 1573 5 1547 -69 1776 -61 190
-156 342 -309 494 -156 157 -305 248 -511 315 -203 66 -189 65 -1687 64 -741
-1 -1378 -6 -1417 -10z m325 -905 c86 -41 153 -108 193 -192 30 -62 32 -75 32
-172 0 -97 -2 -110 -32 -172 -39 -84 -103 -147 -191 -190 -62 -31 -73 -33
-172 -33 -97 0 -110 2 -172 32 -84 40 -151 107 -192 193 -29 60 -31 73 -31
170 0 93 3 111 27 163 51 109 110 165 225 213 50 21 71 24 153 22 82 -3 104
-7 160 -34z m2145 -1029 c33 -9 101 -36 150 -60 194 -93 322 -261 387 -508 21
-80 22 -100 25 -807 l4 -726 -23 -34 c-13 -19 -39 -45 -57 -57 -33 -22 -42
-23 -241 -23 -198 0 -208 1 -240 23 -18 12 -43 35 -54 50 -21 28 -21 39 -26
660 -5 628 -5 632 -28 688 -43 106 -134 195 -242 235 -60 22 -200 22 -260 0
-108 -40 -198 -129 -244 -239 -20 -51 -21 -67 -26 -684 -5 -621 -5 -632 -26
-660 -11 -15 -36 -38 -54 -50 -32 -22 -42 -23 -240 -23 -199 0 -208 1 -241 23
-18 12 -44 38 -56 56 l-23 34 0 967 0 967 23 34 c12 18 38 44 56 56 33 22 42
23 241 23 199 0 208 -1 241 -23 62 -42 79 -79 79 -176 l0 -86 34 51 c56 82
174 186 268 233 134 67 207 82 373 77 84 -3 164 -11 200 -21z m-2074 -78 c18
-12 44 -38 56 -56 l23 -34 0 -967 0 -967 -23 -34 c-12 -18 -38 -44 -56 -56
-33 -22 -42 -23 -241 -23 -199 0 -208 1 -241 23 -18 12 -44 38 -56 56 l-23 34
0 967 0 967 23 34 c12 18 38 44 56 56 33 22 42 23 241 23 199 0 208 -1 241
-23z"/>
</g>
</svg>
